<?xml version="1.0" standalone="no"?>
<!DOCTYPE svg PUBLIC "-//W3C//DTD SVG 20010904//EN"
 "http://www.w3.org/TR/2001/REC-SVG-20010904/DTD/svg10.dtd">
<svg version="1.0" xmlns="http://www.w3.org/2000/svg"
 width="233.000000pt" height="91.000000pt" viewBox="0 0 233.000000 91.000000"
 preserveAspectRatio="xMidYMid meet">

<g transform="translate(0.000000,91.000000) scale(0.100000,-0.100000)"
fill="#000000" stroke="none">
<path d="M10 890 c7 -14 21 -20 43 -20 18 0 38 -4 45 -8 7 -5 109 -199 227
-433 l214 -424 131 -3 c73 -1 130 1 128 5 -10 26 -350 696 -400 791 l-60 112
-169 0 c-167 0 -170 0 -159 -20z"/>
<path d="M570 904 c0 -3 102 -208 228 -455 l227 -449 128 0 c70 0 127 3 127 7
0 3 -102 208 -227 454 l-228 449 -127 0 c-71 0 -128 -3 -128 -6z"/>
<path d="M1052 901 c2 -5 104 -210 228 -455 l225 -446 133 0 133 0 -29 53
c-16 28 -120 233 -232 455 l-204 402 -129 0 c-75 0 -127 -4 -125 -9z"/>
<path d="M1537 891 c4 -18 17 -19 152 -23 141 -3 149 -4 189 -31 145 -95 89
-313 -86 -334 -29 -3 -52 -9 -52 -12 0 -3 56 -114 124 -246 l124 -240 172 -3
c169 -2 171 -2 160 18 -7 14 -21 20 -43 20 -18 0 -37 4 -43 8 -12 8 -204 375
-204 390 0 6 16 16 36 22 49 16 113 76 135 125 24 52 24 138 0 191 -24 53 -91
109 -146 123 -26 6 -142 11 -283 11 -231 0 -240 -1 -235 -19z"/>
</g>
</svg>
